rec1_005.mot
nRows=27
nColumns=19

name rec1_005.mot
datacolumns 19
datarows 27
range 5.0020397305 5.0540400141
endheader
time	ground_force_vx	ground_force_vy	ground_force_vz	ground_force_px	ground_force_py	ground_force_pz	1_ground_force_vx	1_ground_force_vy	1_ground_force_vz	1_ground_force_px	1_ground_force_py	1_ground_force_pz	ground_torque_x	ground_torque_y	ground_torque_z	1_ground_torque_x	1_ground_torque_y	1_ground_torque_z	
        5.0020397305	        0.6886149480	        6.4511197838	       -0.2345046588	       -0.7000000000	       -0.0180000000	        0.5600000000	      -66.1337654550	      751.6990372788	       36.5080302253	       -0.7000000000	       -0.0180000000	       -0.5600000000	        1.7289821815	       -0.9298673343	        4.1742027861	     -352.9104070503	      -72.3708490266	      861.7279632150	
        5.0040394660	        0.5824177457	        6.3959175954	       -0.2854321266	       -0.7000000000	       -0.0180000000	        0.5600000000	      -63.8339685729	      746.5021220002	       36.6398391457	       -0.7000000000	       -0.0180000000	       -0.5600000000	        1.7309696355	       -0.8655066596	        4.1288208053	     -350.4360855042	      -71.4131046646	      853.6503754039	
        5.0060397615	        0.4689782666	        6.3301072460	       -0.3262777358	       -0.7000000000	       -0.0180000000	        0.5600000000	      -61.6227617569	      741.0435052087	       36.8261184046	       -0.7000000000	       -0.0180000000	       -0.5600000000	        1.7277796629	       -0.8067951449	        4.0830063597	     -347.8241142878	      -70.5546180495	      845.3467759555	
        5.0080395770	        0.3536124182	        6.2557465147	       -0.3562024506	       -0.7000000000	       -0.0180000000	        0.5600000000	      -59.5098302870	      735.3670599301	       37.0593628325	       -0.7000000000	       -0.0180000000	       -0.5600000000	        1.7202217736	       -0.7549770586	        4.0370408770	     -345.0956045792	      -69.7908249976	      836.8736025868	
        5.0100399926	        0.2416555752	        6.1750334903	       -0.3755152050	       -0.7000000000	       -0.0180000000	        0.5600000000	      -57.5030967587	      729.5164559092	       37.3329229732	       -0.7000000000	       -0.0180000000	       -0.5600000000	        1.7092368849	       -0.7108974862	        3.9916771495	     -342.2717868314	      -69.1177207345	      828.2848841162	
        5.0120396881	        0.1376829710	        6.0901839994	       -0.3856528241	       -0.7000000000	       -0.0180000000	        0.5600000000	      -55.6081510720	      723.5345530113	       37.6414404928	       -0.7000000000	       -0.0180000000	       -0.5600000000	        1.6958865771	       -0.6746673538	        3.9477588237	     -339.3736696955	      -68.5321247938	      819.6317258380	
        5.0140400635	        0.0448939152	        6.0031538954	       -0.3888516262	       -0.7000000000	       -0.0180000000	        0.5600000000	      -53.8280714880	      717.4625673742	       37.9811394728	       -0.7000000000	       -0.0180000000	       -0.5600000000	        1.6812385160	       -0.6449171203	        3.9056890238	     -336.4217093392	      -68.0318195007	      810.9613731664	
        5.0160394791	       -0.0350111038	        5.9153898093	       -0.3876294456	       -0.7000000000	       -0.0180000000	        0.5600000000	      -52.1636189223	      711.3392138112	       38.3498216760	       -0.7000000000	       -0.0180000000	       -0.5600000000	        1.6661921992	       -0.6189286452	        3.8651640019	     -333.4354897550	      -67.6154395766	      802.3161551183	
        5.0180398945	       -0.1014383376	        5.8278491887	       -0.3843118184	       -0.7000000000	       -0.0180000000	        0.5600000000	      -50.6135707722	      705.1999128866	       38.7464207447	       -0.7000000000	       -0.0180000000	       -0.5600000000	        1.6513901193	       -0.5940677087	        3.8254336901	     -330.4333171162	      -67.2819206671	      793.7326320622	
        5.0200394301	       -0.1542279654	        5.7413177383	       -0.3807778295	       -0.7000000000	       -0.0180000000	        0.5600000000	      -49.1749445456	      699.0764327778	       39.1703342896	       -0.7000000000	       -0.0180000000	       -0.5600000000	        1.6373150064	       -0.5689815194	        3.7859418623	     -327.4319184335	      -67.0296502061	      785.2414519850	
        5.0220397256	       -0.1930880536	        5.6568416293	       -0.3783608060	       -0.7000000000	       -0.0180000000	        0.5600000000	      -47.8430170246	      692.9971138403	       39.6207905881	       -0.7000000000	       -0.0180000000	       -0.5600000000	        1.6244699798	       -0.5437596829	        3.7468772092	     -324.4464253687	      -66.8556273268	      776.8680475237	
        5.0240394611	       -0.2174687560	        5.5758975525	       -0.3777675975	       -0.7000000000	       -0.0180000000	        0.5600000000	      -46.6112238918	      686.9872541487	       40.0962014380	       -0.7000000000	       -0.0180000000	       -0.5600000000	        1.6134234611	       -0.5192383020	        3.7091695619	     -321.4904391335	      -66.7547161703	      768.6336733615	
        5.0260398367	       -0.2269021655	        5.5001064364	       -0.3790646331	       -0.7000000000	       -0.0180000000	        0.5600000000	      -45.4711215709	      681.0692794971	       40.5934714415	       -0.7000000000	       -0.0180000000	       -0.5600000000	        1.6046732073	       -0.4960182674	        3.6739164225	     -318.5759577821	      -66.7190314802	      760.5561999493	
        5.0280394922	       -0.2215537614	        5.4307838516	       -0.3817598136	       -0.7000000000	       -0.0180000000	        0.5600000000	      -44.4125314508	      675.2626573046	       41.1074996889	       -0.7000000000	       -0.0180000000	       -0.5600000000	        1.5984710546	       -0.4742654688	        3.6417531541	     -315.7132558242	      -66.7376557521	      752.6503020773	
        5.0300398277	       -0.2026381900	        5.3687150793	       -0.3849918198	       -0.7000000000	       -0.0180000000	        0.5600000000	      -43.4238568861	      669.5836516942	       41.6311148461	       -0.7000000000	       -0.0180000000	       -0.5600000000	        1.5947731515	       -0.4541044815	        3.6126521906	     -312.9108722402	      -66.7968629123	      744.9270970613	
        5.0320395633	       -0.1724330828	        5.3143046959	       -0.3878499075	       -0.7000000000	       -0.0180000000	        0.5600000000	      -42.4924777002	      664.0450776565	       42.1554009121	       -0.7000000000	       -0.0180000000	       -0.5600000000	        1.5933618845	       -0.4357984914	        3.5862771070	     -310.1756946645	      -66.8807411673	      737.3937541804	
        5.0340400588	       -0.1338808962	        5.2679193205	       -0.3896341301	       -0.7000000000	       -0.0180000000	        0.5600000000	      -41.6050883650	      658.6562639991	       42.6702218584	       -0.7000000000	       -0.0180000000	       -0.5600000000	        1.5939842568	       -0.4199040452	        3.5626253956	     -307.5130686934	      -66.9719535773	      730.0535728847	
        5.0360395943	       -0.0899717612	        5.2300399483	       -0.3899264793	       -0.7000000000	       -0.0180000000	        0.5600000000	      -40.7479471183	      653.4234527321	       43.1648524717	       -0.7000000000	       -0.0180000000	       -0.5600000000	        1.5963782783	       -0.4070702056	        3.5423687131	     -304.9269690942	      -67.0525308070	      722.9067231027	
        5.0380398898	       -0.0431743566	        5.2010750047	       -0.3885779995	       -0.7000000000	       -0.0180000000	        0.5600000000	      -39.9071135415	      648.3506302113	       43.6286456878	       -0.7000000000	       -0.0180000000	       -0.5600000000	        1.6002518608	       -0.3973015409	        3.5265256184	     -302.4202833146	      -67.1046694976	      715.9514826237	
        5.0400395854	        0.0048329665	        5.1809910232	       -0.3856481661	       -0.7000000000	       -0.0180000000	        0.5600000000	      -39.0687467671	      643.4404072000	       44.0515972665	       -0.7000000000	       -0.0180000000	       -0.5600000000	        1.6052421228	       -0.3898479582	        3.5157184381	     -299.9951257628	      -67.1114451936	      709.1853815812	
        5.0420398809	        0.0530583102	        5.1690152183	       -0.3812930307	       -0.7000000000	       -0.0180000000	        0.5600000000	      -38.2195209637	      638.6945266090	       44.4247269681	       -0.7000000000	       -0.0180000000	       -0.5600000000	        1.6108257362	       -0.3838942395	        3.5096169119	     -297.6530372237	      -67.0573688723	      702.6056688652	
        5.0440396564	        0.1008414741	        5.1637499313	       -0.3757087099	       -0.7000000000	       -0.0180000000	        0.5600000000	      -37.3471050237	      634.1138663226	       44.7402982279	       -0.7000000000	       -0.0180000000	       -0.5600000000	        1.6162921826	       -0.3791198947	        3.5071062221	     -295.3950131091	      -66.9287574957	      696.2090689430	
        5.0460401119	        0.1474587209	        5.1637091086	       -0.3691900886	       -0.7000000000	       -0.0180000000	        0.5600000000	      -36.4405488704	      629.6981874916	       44.9919790800	       -0.7000000000	       -0.0180000000	       -0.5600000000	        1.6208774255	       -0.3756670781	        3.5070869364	     -293.2214801800	      -66.7139813447	      689.9913259371	
        5.0480396875	        0.1919004070	        5.1677722248	       -0.3622483282	       -0.7000000000	       -0.0180000000	        0.5600000000	      -35.4905069102	      625.4461622728	       45.1749602838	       -0.7000000000	       -0.0180000000	       -0.5600000000	        1.6239591848	       -0.3734438320	        3.5091807661	     -291.1323832479	      -66.4036481965	      683.9472143654	
        5.0500399830	        0.2329090214	        5.1752677938	       -0.3556324994	       -0.7000000000	       -0.0180000000	        0.5600000000	      -34.4893500142	      621.3558743782	       45.2858441022	       -0.7000000000	       -0.0180000000	       -0.5600000000	        1.6251463590	       -0.3716844353	        3.5138609057	     -289.1273276337	      -65.9906074351	      678.0712611987	
        5.0520397186	        0.2692172388	        5.1858087037	       -0.3501194153	       -0.7000000000	       -0.0180000000	        0.5600000000	      -33.4312555740	      617.4253123679	       45.3222826061	       -0.7000000000	       -0.0180000000	       -0.5600000000	        1.6242011467	       -0.3695514357	        3.5220542533	     -287.2056030329	      -65.4697575742	      672.3586120372	
        5.0540400141	        0.2998740255	        5.1990521615	       -0.3462356736	       -0.7000000000	       -0.0180000000	        0.5600000000	      -32.3123407209	      613.6524827633	       45.2826393089	       -0.7000000000	       -0.0180000000	       -0.5600000000	        1.6209205851	       -0.3667369721	        3.5345046821	     -285.3661170406	      -64.8378782511	      666.8054542991	
